GRF_marche0007
version=1
nRows=27
nColumns=19
inDegrees=yes
endheader
time	ground_force_vx	ground_force_vy	ground_force_vz	ground_force_px	ground_force_py	ground_force_pz	1_ground_force_vx	1_ground_force_vy	1_ground_force_vz	1_ground_force_px	1_ground_force_py	1_ground_force_pz	ground_torque_x	ground_torque_y	ground_torque_z	1_ground_torque_x	1_ground_torque_y	1_ground_torque_z
      2.07000000	      8.56687431	    -15.20843528	      1.56282667	      0.40231616	      0.00780239	      0.37094036	    112.20424113	    745.64675625	     32.86221523	     -0.36404392	      0.00845454	      0.20428382	      5.35215140	      3.08422779	     -6.24043660	   -152.85893373	     29.48073806	   -272.63497290
      2.08000000	      5.39993479	      1.84694836	      3.29895605	     -0.58460766	      0.00642996	     -0.05973211	    123.81263795	    753.66814095	     31.80490509	     -0.36137132	      0.00846220	      0.20477784	     -0.51332458	      1.38548334	     -1.50842205	   -154.96459107	     31.37388962	   -273.63276745
      2.09000000	      0.28079533	     26.09249586	      5.21309346	      0.21126123	      0.00749307	      0.34295089	    134.73270291	    756.24621440	     30.47261541	     -0.35878714	      0.00846958	      0.20524116	     -8.91012399	     -1.07390831	      5.49646646	   -155.93122943	     33.10503278	   -272.69339140
      2.10000000	     -6.95058751	     57.87286497	      7.16376372	      0.25757093	      0.00757081	      0.34622650	    144.50573985	    752.31787560	     28.86643956	     -0.35629256	      0.00847668	      0.20566732	    -19.97624271	     -4.30695177	     14.95214454	   -155.52459274	     34.57976307	   -269.47835579
      2.11000000	    -16.33082795	     97.12315905	      8.97322758	      0.27598030	      0.00760137	      0.34796810	    152.66460398	    740.98466924	     26.99379658	     -0.35388388	      0.00848349	      0.20605200	    -33.70875107	     -8.27085612	     26.91788435	   -153.54590952	     35.70183181	   -263.71101331
      2.12000000	    -27.75293251	    143.33578729	     10.43822324	      0.28687828	      0.00761924	      0.34928125	    158.76306687	    721.59437471	     24.87165296	     -0.35155326	      0.00849003	      0.20639261	    -49.95105944	    -12.86322525	     41.31862560	   -149.84939481	     36.38067887	   -255.20359377
      2.13000000	    -40.95844404	    195.56848784	     11.34614483	      0.29473882	      0.00763198	      0.35040694	    162.40784223	    693.81467971	     22.52916268	     -0.34928943	      0.00849633	      0.20668780	    -68.39417879	    -17.92442528	     57.94098326	   -144.35803844	     36.53932997	   -243.88103903
      2.14000000	    -55.54480944	    252.49599773	     11.49593516	      0.30111332	      0.00764222	      0.35144675	    163.29079306	    657.69122137	     20.00920940	     -0.34707818	      0.00850243	      0.20693701	    -88.59289782	    -23.24693470	     76.44236046	   -137.07602677	     36.12192169	   -229.79900925
      2.15000000	    -70.98880445	    312.50115390	     10.72194057	      0.30668434	      0.00765109	      0.35245263	    161.21835146	    613.68275868	     17.36841513	     -0.34490243	      0.00850836	      0.20714008	   -109.99553975	    -28.59141103	     96.37264167	   -128.09625085	     35.10005703	   -213.15365590
      2.16000000	    -86.68402813	    373.79467600	      8.91781019	      0.31179917	      0.00765917	      0.35345337	    156.13498624	    562.66764201	     14.67533653	     -0.34274183	      0.00851418	      0.20729672	   -131.98378179	    -33.70782148	    117.20591636	   -117.60166261	     33.47722533	   -194.28130871
      2.17000000	   -101.98772496	    434.54794036	      6.05658374	      0.31665118	      0.00766679	      0.35446454	    148.13775251	    505.91800040	     12.00681152	     -0.34057166	      0.00851995	      0.20740597	   -153.91737985	    -38.35868414	    138.37799791	   -105.85973500	     31.29066880	   -173.64707142
      2.18000000	   -116.27051907	    493.02080644	      2.20289713	      0.32135279	      0.00767414	      0.35549294	    137.47957903	    445.04097934	      9.44272583	     -0.33836061	      0.00852575	      0.20746546	   -175.17787302	    -42.34077414	    159.32454892	    -93.20991093	     28.61033960	   -151.82237631
      2.19000000	   -128.96261746	    547.66782880	     -2.48592980	      0.32596880	      0.00768132	      0.35653876	    124.55993442	    381.88965943	      7.05978276	     -0.33606681	      0.00853168	      0.20747013	   -195.20571313	    -45.50189174	    179.51473710	    -80.04462563	     25.53492574	   -129.45269176
      2.20000000	   -139.59145791	    597.21118394	     -7.77135439	      0.33053332	      0.00768840	      0.35759709	    109.90276121	    318.44968409	      4.92509969	     -0.33363048	      0.00853788	      0.20741030	   -213.52686276	    -47.75038850	    198.47665491	    -66.78519620	     22.18527030	   -107.21770015
      2.21000000	   -147.80792390	    640.67626985	    -13.35672737	      0.33505949	      0.00769541	      0.35865917	     94.12296189	    256.71080494	      3.09054885	     -0.33095966	      0.00854456	      0.20726779	   -229.76738812	    -49.05670646	    215.81293376	    -53.85453038	     18.69580995	    -85.78726008
      2.22000000	   -153.40033441	    677.39384686	    -18.91890977	      0.33954616	      0.00770236	      0.35971391	     77.88412849	    198.53506428	      1.58867255	     -0.32789987	      0.00855206	      0.20700790	   -243.65715712	    -49.44771938	    231.20733489	    -41.64912540	     15.20487814	    -65.77720364
      2.23000000	   -156.29690452	    706.97826786	    -24.14355561	      0.34398307	      0.00770924	      0.36074960	     61.85143326	    145.53459477	      0.43074884	     -0.32416099	      0.00856103	      0.20656033	   -255.02558789	    -48.99579392	    244.42478992	    -30.51309176	     11.84483388	    -47.70932023
      2.24000000	   -156.55812604	    729.29338474	    -28.75848772	      0.34835514	      0.00771603	      0.36175567	     46.64441559	     98.97151559	     -0.39278601	     -0.31910849	      0.00857285	      0.20576576	   -263.79301443	    -47.80502434	    255.30793166	    -20.71683669	      8.73298212	    -31.97959195
      2.25000000	   -154.36077388	    744.41630508	    -32.55998747	      0.35264606	      0.00772271	      0.36272445	     32.79461416	     59.68997304	     -0.90975835	     -0.31098907	      0.00859139	      0.20418737	   -269.96073941	    -45.99704841	    263.77267513	    -12.44253745	      5.96414757	    -18.83783431
      2.26000000	   -149.97538617	    752.60562411	    -35.42828521	      0.35684070	      0.00772926	      0.36365249	     20.71249154	     28.08632375	     -1.16207125	     -0.29231007	      0.00863336	      0.20011345	   -273.60170449	    -43.69837650	    269.80433368	     -5.77768232	      3.60556017	     -8.38047521
      2.27000000	   -143.73931162	    754.27664166	    -37.33071702	      0.36092658	      0.00773564	      0.36454114	     10.66688546	      4.11853459	     -1.20066129	     -0.11167558	      0.00905571	      0.17142085	   -274.85245651	    -41.03047180	    273.45459781	     -0.71691449	      1.69442702	     -0.55653157
      2.28000000	   -136.02770961	    749.98261654	    -38.31333324	      0.36489401	      0.00774185	      0.36539652	      2.77846779	    -12.64896106	     -1.08034868	     -0.38231865	      0.00843890	      0.22480760	   -273.90609853	    -38.10309215	    274.83882035	      2.82861058	      0.23823845	      4.81476319
      2.29000000	   -127.22504305	    740.39899901	    -38.48366105	      0.36873543	      0.00774786	      0.36622859	     -2.97324438	    -22.97258370	     -0.85517337	     -0.34763659	      0.00851760	      0.21774862	   -271.00537115	    -35.01077714	    274.13260200	      5.01596331	     -0.78246203	      8.01747540
      2.30000000	   -117.69948189	    726.30696385	    -37.98848653	      0.37244405	      0.00775364	      0.36704963	     -6.73146749	    -27.83909719	     -0.57459270	     -0.33567123	      0.00854506	      0.21551194	   -266.43492062	    -31.83191161	    271.56665392	      6.05138088	     -1.40937072	      9.40713886
      2.31000000	   -107.78219945	    708.57314242	    -36.99080204	      0.37601216	      0.00775918	      0.36787226	     -8.73557655	    -28.36795365	     -0.28072319	     -0.32782653	      0.00856403	      0.21467498	   -260.51205545	    -28.62955567	    267.41920773	      6.16966690	     -1.70046283	      9.37722050
      2.32000000	    -97.75286082	    688.12373294	    -35.64952610	      0.37942960	      0.00776445	      0.36870724	     -9.29008766	    -25.71640190	     -0.00666553	     -0.32070493	      0.00858215	      0.21450017	   -253.57570710	    -25.45320389	    262.00569171	      5.61414353	     -1.72350607	      8.32717607
      2.33000000	    -87.83181234	    665.91272324	    -34.10446803	      0.38268270	      0.00776942	      0.36956136	     -8.73279332	    -20.99543813	      0.22415093	     -0.31255842	      0.00860369	      0.21482546	   -245.97376225	    -22.34078997	    255.66587975	      4.61886313	     -1.54972564	      6.63469964
